PathFileType	4	(X/Y/Z)	C:/Users/opensim2020/Desktop/walking_exp_matlab/subject06_walking23_straight_01.trc																																																																																																																																					
DataRate	CameraRate	NumFrames	NumMarkers	Units	OrigDataRate	OrigDataStartFrame	OrigNumFrames																																																																																																																																	
100	100	6	45	mm	100	804	106																																																																																																																																	
Frame#	Time	LFHD			RFHD			LBHD			RBHD			C7			T10			CLAV			STRN			RBAK			LSHO			LUPA			LELB			LFRM			LWRA			LWRB			LFIN			RSHO			RUPA			RELB			RFRM			RWRA			RWRB			RFIN			LASI			RASI			LPSI			RPSI			LTHI			LKNE			LTIB			LANK			LHEE			LTOE			RTHI			RKNE			RTIB			RANK			RHEE			RTOE			*39			*40			*41			*42			*43			*44		
		X1	Y1	Z1	X2	Y2	Z2	X3	Y3	Z3	X4	Y4	Z4	X5	Y5	Z5	X6	Y6	Z6	X7	Y7	Z7	X8	Y8	Z8	X9	Y9	Z9	X10	Y10	Z10	X11	Y11	Z11	X12	Y12	Z12	X13	Y13	Z13	X14	Y14	Z14	X15	Y15	Z15	X16	Y16	Z16	X17	Y17	Z17	X18	Y18	Z18	X19	Y19	Z19	X20	Y20	Z20	X21	Y21	Z21	X22	Y22	Z22	X23	Y23	Z23	X24	Y24	Z24	X25	Y25	Z25	X26	Y26	Z26	X27	Y27	Z27	X28	Y28	Z28	X29	Y29	Z29	X30	Y30	Z30	X31	Y31	Z31	X32	Y32	Z32	X33	Y33	Z33	X34	Y34	Z34	X35	Y35	Z35	X36	Y36	Z36	X37	Y37	Z37	X38	Y38	Z38	X39	Y39	Z39	X40	Y40	Z40	X41	Y41	Z41	X42	Y42	Z42	X43	Y43	Z43	X44	Y44	Z44	X45	Y45	Z45
																																																																																																																																								
67	0.66	30.53719	1632.61523	1361.52844	42.11342	1629.12195	1493.12366	-105.02903	1587.03149	1377.17493	-91.98428	1588.67114	1506.23535	-109.96509	1430.36987	1438.87317	-159.03957	1102.76563	1443.79944	-2.57998	1349.25439	1437.53601	30.95026	1172.61865	1435.54138	-187.94795	1264.72644	1525.33899	-64.24608	1379.42578	1276.40466	-118.65285	1184.84277	1209.09802	-155.53021	1078.06055	1202.35413	-176.09047	929.25342	1180.71448	-149.88541	801.21216	1221.11218	-209.96935	814.99805	1184.21399	-197.90468	724.14948	1186.34241	-42.23651	1387.01294	1598.64856	-76.82396	1196.40881	1700.27234	-57.89433	1080.6637	1721.09424	11.81803	988.0799	1731.01807	132.09631	910.9281	1680.27356	93.52131	878.98468	1725.14331	167.11723	839.46796	1714.8844	24.19611	938.59192	1348.46033	-0.89876	941.98907	1566.27295	-134.9395	964.08978	1353.3689	-149.12451	974.28766	1521.15613	31.46731	627.53882	1281.39697	96.49184	482.26642	1321.86084	165.67239	241.10168	1339.70068	242.51167	87.40832	1386.58337	213.60907	61.6752	1436.17688	387.20172	112.72344	1387.5636	-117.61297	617.05548	1598.7511	-143.70715	492.29486	1574.28845	-291.91855	263.56775	1547.26819	-374.21655	101.55424	1486.64209	-415.81723	91.64429	1436.45239	-238.86633	35.96254	1502.74707	-61.51106	1680.49609	1427.25366	NaN	NaN	NaN	NaN	NaN	NaN	NaN	NaN	NaN	NaN	NaN	NaN	NaN	NaN	NaN
68	0.67	44.85353	1630.88306	1360.76892	56.45248	1627.5603	1492.45154	-90.76884	1584.92151	1376.65808	-77.59937	1586.77991	1505.66199	-95.43403	1428.43823	1438.29883	-143.68484	1100.50256	1443.51392	12.16096	1347.45032	1437.19153	45.93618	1170.87671	1435.49988	-173.22021	1262.89941	1525.06812	-49.78921	1377.14392	1275.93945	-105.0713	1182.7428	1209.12878	-142.7798	1076.28772	1202.62671	-164.79689	927.64587	1181.09875	-139.74913	799.38812	1221.6571	-199.75876	813.90417	1184.63831	-188.55365	722.81812	1186.91492	-27.54892	1385.29114	1598.32715	-63.03713	1195.03333	1700.18384	-44.59861	1079.3075	1721.26965	25.45561	987.28375	1730.61816	146.29646	911.54553	1679.31897	108.40483	879.12592	1724.40491	182.26572	840.45868	1713.66809	40.73849	937.19073	1348.92419	14.22498	940.46143	1566.80579	-118.53001	961.90503	1352.42114	-133.96425	971.87885	1520.12598	49.23192	626.21564	1280.97913	113.54442	481.11395	1322.24719	184.60867	239.91905	1340.26672	261.51654	86.89406	1388.25989	232.68372	60.71697	1437.71155	405.73862	114.39143	1389.8269	-103.29876	615.92273	1599.68445	-129.83742	491.1171	1575.69104	-283.77902	265.9075	1548.81921	-371.36407	106.52158	1488.68213	-413.59506	98.55862	1438.9043	-238.76176	35.89861	1502.67957	-47.41152	1678.57129	1426.53198	NaN	NaN	NaN	NaN	NaN	NaN	NaN	NaN	NaN	NaN	NaN	NaN	NaN	NaN	NaN
69	0.68	59.03676	1629.24976	1360.12598	70.81477	1626.29651	1491.70313	-76.32779	1583.16589	1375.96094	-63.13647	1585.20483	1504.94946	-80.87758	1426.85767	1437.8197	-128.30457	1098.60132	1443.26672	26.99356	1345.95117	1436.73877	61.16199	1169.51648	1435.40393	-158.58507	1261.31848	1524.65759	-35.22561	1375.21765	1275.34167	-91.23943	1180.93433	1209.04785	-129.45209	1074.62927	1202.70679	-152.52815	926.19684	1181.35693	-128.45584	797.8158	1221.77893	-188.63428	812.69135	1185.11719	-178.15059	721.55023	1187.37256	-12.9954	1383.89014	1597.84937	-49.35085	1193.94958	1699.97437	-31.52835	1078.27063	1721.28955	38.92522	986.68341	1730.36951	159.86301	911.83521	1678.41125	122.51987	879.23798	1723.53125	197.00645	841.23376	1713.15369	57.49815	936.1922	1349.2135	29.67882	939.27069	1567.17993	-101.94035	960.09235	1351.62073	-118.62354	969.80957	1519.19666	67.65791	625.41925	1281.20508	131.5038	480.88486	1322.86328	201.9971	238.88692	1340.78198	276.93396	85.15137	1389.3114	247.64027	58.58404	1438.36804	420.76785	113.34509	1392.41418	-88.45348	615.02466	1600.6488	-115.25542	490.13718	1577.33655	-274.80231	268.71106	1550.33789	-368.00244	112.33275	1490.78418	-410.40787	106.34636	1441.276	-238.67645	35.87934	1502.61975	-33.14699	1676.97412	1425.67627	NaN	NaN	NaN	NaN	NaN	NaN	NaN	NaN	NaN	NaN	NaN	NaN	NaN	NaN	NaN
70	0.69	73.49966	1628.18298	1359.29761	85.22675	1625.38098	1490.94116	-61.77732	1581.73792	1375.15076	-48.67474	1583.94824	1504.20093	-66.22552	1425.47009	1437.12952	-112.46299	1096.99866	1442.93518	41.92988	1344.82312	1436.22449	76.60169	1168.54358	1435.14575	-143.47165	1259.94971	1523.99036	-20.52357	1373.58911	1274.67676	-76.83277	1179.40979	1208.82043	-115.55016	1073.2699	1202.69519	-139.62311	924.9411	1181.48096	-116.13688	796.48138	1221.77881	-176.60677	811.79626	1185.43591	-166.40923	720.4942	1187.53235	1.82039	1382.90637	1597.38513	-35.71532	1193.21118	1699.54663	-18.75693	1077.54297	1720.99976	51.76139	986.10864	1729.9259	172.8018	911.77539	1677.62915	135.64236	879.00714	1722.83032	210.1851	841.29681	1712.24854	74.47949	935.60895	1349.39172	45.5202	938.40894	1567.47644	-84.99475	958.64258	1351.03943	-102.26023	968.04071	1518.35681	86.30106	625.28174	1281.64319	150.43533	481.39252	1323.6416	217.39241	237.40616	1340.91614	289.04694	82.36503	1389.80823	258.96597	55.4376	1438.21497	432.64233	109.6394	1395.01636	-72.98355	614.35437	1601.81592	-99.7023	489.28989	1579.20129	-265.36984	272.15375	1552.29028	-363.65778	118.86271	1492.89685	-406.23212	115.23721	1443.65247	-238.46941	35.86243	1502.57397	-18.87571	1675.69226	1424.80029	NaN	NaN	NaN	NaN	NaN	NaN	NaN	NaN	NaN	NaN	NaN	NaN	NaN	NaN	NaN
71	0.7	87.96516	1627.40833	1358.375	99.6281	1624.7583	1490.02991	-47.16141	1580.75208	1374.23413	-34.14326	1583.05176	1503.2594	-51.42749	1424.42761	1436.29919	-96.23584	1095.68311	1442.53064	56.96	1344.06628	1435.50793	92.31198	1168.00073	1434.74695	-128.12526	1258.74329	1523.11987	-5.67688	1372.39465	1273.8656	-62.0281	1178.21606	1208.43445	-101.01176	1072.15442	1202.56763	-125.96375	923.98773	1181.46204	-103.03726	795.36725	1221.76038	-163.58516	811.07275	1185.55811	-154.00356	719.69366	1187.67554	16.41672	1382.34082	1596.70911	-22.17153	1192.87488	1698.90259	-6.12167	1077.19763	1720.5177	64.18183	985.65436	1729.34619	185.13254	911.35712	1676.96191	147.90385	878.62646	1722.1123	221.99397	840.66809	1711.05945	91.75127	935.3963	1349.33057	61.83533	937.86523	1567.5614	-67.64822	957.55634	1350.71021	-85.65598	966.74591	1517.71948	105.73647	625.86847	1282.02075	169.86159	482.40491	1324.61243	231.49208	235.85222	1341.06494	298.1709	78.77359	1389.86511	266.84946	51.51859	1437.4563	441.9068	103.66632	1397.11145	-56.78385	613.80872	1603.15063	-83.03517	488.3887	1581.37756	-254.54726	275.82449	1554.20996	-358.19226	126.19274	1494.89526	-400.38931	124.98765	1445.79211	-238.10251	35.85894	1502.48718	-4.51693	1674.77173	1423.8678	NaN	NaN	NaN	NaN	NaN	NaN	NaN	NaN	NaN	NaN	NaN	NaN	NaN	NaN	NaN
72	0.71	102.56739	1627.02063	1357.47461	114.09379	1624.40479	1489.18079	-32.58554	1580.07031	1373.23218	-19.64604	1582.48218	1502.3053	-36.57684	1423.62634	1435.30176	-80.03461	1094.78015	1442.08276	72.13039	1343.70715	1434.73193	108.283	1167.87988	1434.27539	-112.84532	1257.79199	1522.14038	9.41752	1371.58423	1272.97314	-46.87226	1177.35229	1207.89954	-85.94323	1071.30554	1202.35168	-111.56831	923.29645	1181.35693	-88.68957	794.54285	1221.38672	-149.02119	810.49609	1185.35901	-140.3427	719.09985	1187.62524	31.09419	1382.02356	1595.85107	-8.84548	1192.90002	1698.10962	6.30246	1077.20129	1719.79272	76.12502	985.3291	1728.74561	196.84552	910.61987	1676.40247	159.25781	877.90729	1721.50391	233.88593	839.96521	1710.99304	109.40795	935.40088	1349.23767	78.67875	937.61969	1567.46069	-49.94242	956.85901	1350.52173	-68.62077	965.83807	1517.15027	125.80666	627.10217	1283.07166	189.6768	483.71552	1325.77185	244.38428	233.95978	1340.93628	304.8324	74.65655	1389.29749	271.87338	47.87317	1436.84595	448.37387	96.24133	1398.68579	-39.92783	613.22034	1604.78442	-65.17499	487.36694	1583.88281	-242.31882	279.8428	1555.76636	-351.32895	134.20222	1496.58582	-392.87308	135.59286	1447.62524	-237.48238	35.88918	1502.30579	9.9201	1674.23889	1422.86792	NaN	NaN	NaN	NaN	NaN	NaN	NaN	NaN	NaN	NaN	NaN	NaN	NaN	NaN	NaN
